<svg width="12" height="20" viewBox="0 0 12 20" fill="none" xmlns="http://www.w3.org/2000/svg">
<path fill-rule="evenodd" clip-rule="evenodd" d="M11.414 0.586061C11.7889 0.961117 11.9996 1.46973 11.9996 2.00006C11.9996 2.53039 11.7889 3.039 11.414 3.41406L4.828 10.0001L11.414 16.5861C11.7783 16.9633 11.9799 17.4685 11.9753 17.9929C11.9708 18.5173 11.7605 19.0189 11.3896 19.3897C11.0188 19.7605 10.5172 19.9708 9.9928 19.9754C9.46841 19.98 8.96321 19.7784 8.586 19.4141L0.586001 11.4141C0.211058 11.039 0.000427246 10.5304 0.000427246 10.0001C0.000427246 9.46973 0.211058 8.96112 0.586001 8.58606L8.586 0.586061C8.96106 0.211119 9.46967 0.000488281 10 0.000488281C10.5303 0.000488281 11.0389 0.211119 11.414 0.586061Z" fill="black"/>
</svg>
