<svg width="65" height="64" viewBox="0 0 65 64" fill="none" xmlns="http://www.w3.org/2000/svg">
<g clip-path="url(#clip0_142_3629)">
<path d="M56.5 15.9998H48.0467L43.1667 10.6665H27.1667V15.9998H40.82L45.7 21.3332H56.5V53.3332H13.8333V29.3332H8.5V53.3332C8.5 56.2665 10.9 58.6665 13.8333 58.6665H56.5C59.4333 58.6665 61.8333 56.2665 61.8333 53.3332V21.3332C61.8333 18.3998 59.4333 15.9998 56.5 15.9998ZM21.8333 37.3332C21.8333 44.6932 27.8067 50.6665 35.1667 50.6665C42.5267 50.6665 48.5 44.6932 48.5 37.3332C48.5 29.9732 42.5267 23.9998 35.1667 23.9998C27.8067 23.9998 21.8333 29.9732 21.8333 37.3332ZM35.1667 29.3332C39.5667 29.3332 43.1667 32.9332 43.1667 37.3332C43.1667 41.7332 39.5667 45.3332 35.1667 45.3332C30.7667 45.3332 27.1667 41.7332 27.1667 37.3332C27.1667 32.9332 30.7667 29.3332 35.1667 29.3332ZM13.8333 15.9998H21.8333V10.6665H13.8333V2.6665H8.5V10.6665H0.5V15.9998H8.5V23.9998H13.8333V15.9998Z" fill="#464646"/>
</g>
<defs>
<clipPath id="clip0_142_3629">
<rect width="64" height="64" fill="white" transform="translate(0.5)"/>
</clipPath>
</defs>
</svg>
