<svg width="99" height="98" viewBox="0 0 99 98" fill="none" xmlns="http://www.w3.org/2000/svg">
<g clip-path="url(#clip0_149_6847)">
<path fill-rule="evenodd" clip-rule="evenodd" d="M43.726 8.57497C45.1715 7.1314 47.1055 6.28199 49.1464 6.1943C51.1874 6.10661 53.1871 6.78703 54.751 8.1013L55.2737 8.57905L63.032 16.3333H73.9999C76.0595 16.3337 78.043 17.1123 79.5529 18.5131C81.0627 19.914 81.9876 21.8336 82.142 23.8875L82.1665 24.5V35.4678L89.9249 43.2261C91.3696 44.6718 92.2197 46.6066 92.3074 48.6485C92.3951 50.6904 91.714 52.691 90.3985 54.2552L89.9208 54.7738L82.1625 62.5321V73.5C82.1631 75.5603 81.385 77.5448 79.984 79.0555C78.5831 80.5663 76.6628 81.4917 74.6083 81.6462L73.9999 81.6666H63.0361L55.2778 89.425C53.8321 90.8697 51.8973 91.7198 49.8554 91.8075C47.8135 91.8952 45.8129 91.2141 44.2487 89.8986L43.7301 89.425L35.9718 81.6666H24.9999C22.9395 81.6673 20.9551 80.8891 19.4443 79.4882C17.9335 78.0872 17.0082 76.167 16.8536 74.1125L16.8332 73.5V62.5321L9.07488 54.7738C7.63017 53.3281 6.78004 51.3933 6.69234 49.3514C6.60465 47.3095 7.28577 45.3089 8.60121 43.7447L9.07488 43.2261L16.8332 35.4678V24.5C16.8336 22.4403 17.6122 20.4569 19.013 18.947C20.4139 17.4371 22.3335 16.5123 24.3874 16.3578L24.9999 16.3333H35.9677L43.726 8.57497ZM62.0725 36.6805L44.7428 54.0102L37.5235 46.7909C36.7573 46.0252 35.7183 45.5953 34.6351 45.5957C33.5519 45.5961 32.5132 46.0267 31.7476 46.7929C30.9819 47.5591 30.552 48.5981 30.5524 49.6813C30.5528 50.7645 30.9834 51.8031 31.7496 52.5688L41.566 62.3851C41.9831 62.8024 42.4783 63.1335 43.0234 63.3593C43.5685 63.5852 44.1528 63.7015 44.7428 63.7015C45.3328 63.7015 45.9171 63.5852 46.4622 63.3593C47.0073 63.1335 47.5025 62.8024 47.9196 62.3851L67.8463 42.4544C68.5901 41.6843 69.0017 40.6528 68.9924 39.5822C68.9831 38.5115 68.5536 37.4874 67.7965 36.7303C67.0395 35.9732 66.0153 35.5438 64.9447 35.5345C63.874 35.5252 62.8426 35.9367 62.0725 36.6805Z" fill="#30AA59"/>
</g>
<defs>
<clipPath id="clip0_149_6847">
<rect width="98" height="98" fill="white" transform="translate(0.5)"/>
</clipPath>
</defs>
</svg>
