<svg width="24" height="26" viewBox="0 0 24 26" fill="none" xmlns="http://www.w3.org/2000/svg">
<path d="M21.3333 6.33333L20.1773 22.5227C20.1294 23.1954 19.8283 23.8251 19.3347 24.2848C18.8412 24.7444 18.1917 25 17.5173 25H6.48259C5.80811 25 5.15867 24.7444 4.6651 24.2848C4.17152 23.8251 3.87047 23.1954 3.82259 22.5227L2.66659 6.33333M9.33325 11.6667V19.6667M14.6666 11.6667V19.6667M15.9999 6.33333V2.33333C15.9999 1.97971 15.8594 1.64057 15.6094 1.39052C15.3593 1.14048 15.0202 1 14.6666 1H9.33325C8.97963 1 8.64049 1.14048 8.39044 1.39052C8.14039 1.64057 7.99992 1.97971 7.99992 2.33333V6.33333M1.33325 6.33333H22.6666" stroke="#F8F8F8" stroke-width="2" stroke-linecap="round" stroke-linejoin="round"/>
</svg>
