<svg width="65" height="64" viewBox="0 0 65 64" fill="none" xmlns="http://www.w3.org/2000/svg">
<path d="M48.4999 53.3332H11.1666V15.9998H35.1666V10.6665H11.1666C8.23325 10.6665 5.83325 13.0665 5.83325 15.9998V53.3332C5.83325 56.2665 8.23325 58.6665 11.1666 58.6665H48.4999C51.4333 58.6665 53.8333 56.2665 53.8333 53.3332V29.3332H48.4999V53.3332ZM27.7266 44.8798L22.4999 38.5865L15.1666 47.9998H44.4999L35.0599 35.4398L27.7266 44.8798ZM53.8333 10.6665V2.6665H48.4999V10.6665H40.4999C40.5266 10.6932 40.4999 15.9998 40.4999 15.9998H48.4999V23.9732C48.5266 23.9998 53.8333 23.9732 53.8333 23.9732V15.9998H61.8333V10.6665H53.8333Z" fill="#464646"/>
</svg>
