<svg width="32" height="32" viewBox="0 0 32 32" fill="none" xmlns="http://www.w3.org/2000/svg">
<path d="M14.6667 21.3333L9.33333 15.9999M9.33333 15.9999L14.6667 10.6666M9.33333 15.9999H28M21.3333 21.3333V22.6666C21.3333 23.7275 20.9119 24.7449 20.1618 25.495C19.4116 26.2452 18.3942 26.6666 17.3333 26.6666H8C6.93913 26.6666 5.92172 26.2452 5.17157 25.495C4.42143 24.7449 4 23.7275 4 22.6666V9.33325C4 8.27239 4.42143 7.25497 5.17157 6.50482C5.92172 5.75468 6.93913 5.33325 8 5.33325H17.3333C18.3942 5.33325 19.4116 5.75468 20.1618 6.50482C20.9119 7.25497 21.3333 8.27239 21.3333 9.33325V10.6666" stroke="#EA6E53" stroke-width="2" stroke-linecap="round" stroke-linejoin="round"/>
</svg>
