<svg width="40" height="40" viewBox="0 0 40 40" fill="none" xmlns="http://www.w3.org/2000/svg">
<path d="M5 16.6666V31.6666C5 32.5507 5.35119 33.3985 5.97631 34.0236C6.60143 34.6488 7.44928 35 8.33333 35H31.6667C32.5507 35 33.3986 34.6488 34.0237 34.0236C34.6488 33.3985 35 32.5507 35 31.6666V16.6666" fill="white"/>
<path d="M5 16.6666V31.6666C5 32.5507 5.35119 33.3985 5.97631 34.0236C6.60143 34.6488 7.44928 35 8.33333 35H31.6667C32.5507 35 33.3986 34.6488 34.0237 34.0236C34.6488 33.3985 35 32.5507 35 31.6666V16.6666" stroke="#424242" stroke-width="2"/>
<path d="M24.7218 35V25C24.7218 24.1159 24.3706 23.2681 23.7455 22.6429C23.1204 22.0178 22.2725 21.6666 21.3885 21.6666H18.0551C17.1711 21.6666 16.3232 22.0178 15.6981 22.6429C15.073 23.2681 14.7218 24.1159 14.7218 25V35" fill="white"/>
<path d="M24.7218 35V25C24.7218 24.1159 24.3706 23.2681 23.7455 22.6429C23.1204 22.0178 22.2725 21.6666 21.3885 21.6666H18.0551C17.1711 21.6666 16.3232 22.0178 15.6981 22.6429C15.073 23.2681 14.7218 24.1159 14.7218 25V35" stroke="#424242" stroke-width="2" stroke-miterlimit="16"/>
<path d="M36.3634 15.6067L33.54 5.725C33.4803 5.51608 33.3541 5.33231 33.1806 5.2015C33.0071 5.07069 32.7957 4.99995 32.5784 5H25.8334L26.625 14.5067C26.637 14.6595 26.6853 14.8073 26.7659 14.9378C26.8465 15.0682 26.957 15.1776 27.0884 15.2567C27.7384 15.645 29.0084 16.3617 30 16.6667C31.6934 17.1883 34.1667 17 35.5767 16.8267C35.7138 16.8089 35.8453 16.7615 35.9622 16.6877C36.0791 16.6139 36.1784 16.5155 36.2533 16.3993C36.3282 16.2832 36.3769 16.1521 36.3959 16.0152C36.4149 15.8782 36.4038 15.7388 36.3634 15.6067Z" fill="white" stroke="#424242" stroke-width="2"/>
<path d="M23.3334 16.6667C24.28 16.375 25.48 15.71 26.15 15.3133C26.3062 15.2204 26.4329 15.0851 26.5155 14.9232C26.5981 14.7613 26.6332 14.5793 26.6167 14.3983L25.8334 5H14.1667L13.3834 14.3983C13.3666 14.5796 13.4015 14.7619 13.4841 14.9242C13.5667 15.0864 13.6936 15.2219 13.85 15.315C14.52 15.71 15.72 16.375 16.6667 16.6667C19.155 17.4333 20.845 17.4333 23.3334 16.6667Z" fill="white" stroke="#424242" stroke-width="2"/>
<path d="M6.46009 5.725L3.63675 15.6083C3.5969 15.7403 3.58625 15.8794 3.60553 16.0159C3.62482 16.1524 3.67357 16.283 3.74842 16.3988C3.82327 16.5145 3.92242 16.6126 4.03898 16.6862C4.15554 16.7598 4.28672 16.8072 4.42342 16.825C5.83175 17 8.30675 17.1867 10.0001 16.6667C10.9918 16.3617 12.2634 15.645 12.9118 15.2583C13.0433 15.1791 13.154 15.0695 13.2346 14.9387C13.3152 14.808 13.3634 14.6598 13.3751 14.5067L14.1668 5H7.42175C7.20446 4.99995 6.99305 5.07069 6.81954 5.2015C6.64603 5.33231 6.51984 5.51608 6.46009 5.725Z" fill="white" stroke="#424242" stroke-width="2"/>
</svg>
