<svg width="99" height="98" viewBox="0 0 99 98" fill="none" xmlns="http://www.w3.org/2000/svg">
<path d="M43.081 11.9151C43.7237 10.7787 44.6567 9.83327 45.7844 9.17545C46.9122 8.51764 48.1944 8.17102 49.5 8.17102C50.8056 8.17102 52.0878 8.51764 53.2156 9.17545C54.3434 9.83327 55.2763 10.7787 55.919 11.9151L89.337 70.462C92.179 75.4436 88.6102 81.6666 82.9098 81.6666H16.0983C10.398 81.6666 6.82918 75.4436 9.67118 70.462L43.0892 11.907L43.081 11.9151ZM45.4167 36.75V44.9166C45.4167 45.9996 45.8469 47.0382 46.6127 47.804C47.3784 48.5698 48.417 49 49.5 49C50.583 49 51.6216 48.5698 52.3874 47.804C53.1531 47.0382 53.5833 45.9996 53.5833 44.9166V36.75C53.5833 35.667 53.1531 34.6284 52.3874 33.8626C51.6216 33.0968 50.583 32.6666 49.5 32.6666C48.417 32.6666 47.3784 33.0968 46.6127 33.8626C45.8469 34.6284 45.4167 35.667 45.4167 36.75ZM49.5 55.125C47.8756 55.125 46.3176 55.7703 45.169 56.9189C44.0203 58.0676 43.375 59.6255 43.375 61.25C43.375 62.8744 44.0203 64.4323 45.169 65.581C46.3176 66.7297 47.8756 67.375 49.5 67.375C51.1245 67.375 52.6824 66.7297 53.831 65.581C54.9797 64.4323 55.625 62.8744 55.625 61.25C55.625 59.6255 54.9797 58.0676 53.831 56.9189C52.6824 55.7703 51.1245 55.125 49.5 55.125Z" fill="#EA6E53"/>
</svg>
